<?xml version="1.0" encoding="UTF-8"?>
<!DOCTYPE svg PUBLIC "-//W3C//DTD SVG 1.1//EN" "http://www.w3.org/Graphics/SVG/1.1/DTD/svg11.dtd">
<svg version="1.1" xmlns="http://www.w3.org/2000/svg" xmlns:xlink="http://www.w3.org/1999/xlink" x="0" y="0" width="480" height="170" viewBox="0, 0, 480, 170">
<g transform="translate(0.000000,170.000000) scale(0.100000,-0.100000)"
 stroke="none">
<path d="M1210 1390 c-20 -20 -26 -65 -12 -86 12 -18 49 -34 80 -34 43 0 75
30 75 70 0 22 -7 39 -22 52 -32 25 -95 24 -121 -2z" fill="#CE0814"/>
<path d="M200 1368 c0 -6 38 -154 85 -329 47 -175 85 -321 85 -324 0 -3 40 -5
88 -5 l89 0 59 225 c32 124 61 225 64 225 3 0 13 -28 22 -62 9 -35 35 -136 58
-225 l43 -163 83 0 c70 0 83 3 88 18 3 9 41 154 86 322 44 168 83 311 85 318
3 9 -15 12 -73 12 l-77 0 -50 -235 c-28 -129 -53 -235 -56 -235 -3 0 -27 91
-53 202 -27 111 -53 217 -58 235 l-9 33 -79 0 -78 0 -11 -32 c-10 -34 -115
-417 -124 -453 -4 -18 -5 -18 -6 2 0 12 -23 124 -51 249 -27 125 -50 229 -50
230 0 2 -36 4 -80 4 -54 0 -80 -4 -80 -12z" fill="#BBBBBB"/>
<path d="M1570 1191 c-86 -28 -120 -68 -120 -141 0 -64 22 -95 87 -124 112
-50 128 -61 131 -83 7 -50 -78 -68 -168 -34 l-50 19 0 -53 c0 -63 3 -64 110
-72 96 -7 173 14 215 57 26 27 30 39 30 90 0 73 -23 101 -108 132 -102 37
-133 79 -85 112 28 20 73 20 127 1 l41 -14 0 49 c0 27 -5 52 -11 56 -17 10
-171 15 -199 5z" fill="#BBBBBB"/>
<path d="M1992 1174 c-93 -46 -140 -144 -129 -265 7 -79 43 -140 105 -176 42
-25 56 -28 142 -28 53 0 111 6 133 13 36 13 37 15 37 64 0 44 -2 49 -17 43
-96 -41 -152 -45 -201 -15 -18 11 -37 32 -42 46 -21 55 -23 54 145 54 l155 0
0 48 c0 66 -24 141 -56 176 -65 69 -180 86 -272 40z" fill="#BBBBBB"/>
<path d="M1200 950 l0 -240 70 0 70 0 0 240 0 240 -70 0 -70 0 0 -240z" fill="#BBBBBB"/>
<path d="M2520 805 l0 -335 153 0 c169 0 225 11 282 54 64 49 84 171 38 235
-10 14 -42 38 -71 52 -46 24 -49 28 -28 33 13 3 40 24 60 46 32 36 36 46 36
95 0 46 -4 59 -31 90 -46 52 -102 65 -286 65 l-153 0 0 -335z m280 210 c36
-19 49 -59 29 -94 -20 -35 -55 -51 -111 -51 l-48 0 0 80 0 80 50 0 c28 0 64
-7 80 -15z m19 -270 c32 -16 41 -33 41 -76 0 -64 -39 -89 -136 -89 l-54 0 0
90 0 90 60 0 c34 0 74 -7 89 -15z"/>
<path d="M3785 1071 l-60 -18 -3 -51 -3 -52 -40 0 -39 0 0 -55 0 -55 39 0 39
0 4 -142 c3 -152 13 -188 61 -218 28 -17 135 -24 170 -11 24 10 27 15 27 61
l0 51 -35 -7 c-27 -5 -41 -2 -55 11 -18 16 -20 32 -20 137 l0 118 55 0 55 0 0
55 0 55 -55 0 -55 0 0 70 c0 79 4 76 -85 51z"/>
<path d="M3260 951 c-133 -43 -200 -162 -170 -304 23 -111 104 -177 226 -185
179 -12 297 105 281 278 -12 136 -93 211 -237 216 -41 2 -86 0 -100 -5z m152
-130 c32 -29 33 -31 33 -111 0 -80 -1 -82 -33 -111 -78 -70 -182 -9 -182 107
0 60 19 103 54 125 46 28 90 24 128 -10z"/>
<path d="M4158 951 c-80 -26 -118 -73 -118 -145 0 -63 39 -106 122 -136 72
-26 98 -45 98 -71 0 -48 -84 -63 -170 -30 l-50 19 0 -53 c0 -63 3 -64 110 -72
96 -7 173 14 215 57 26 27 30 39 30 90 0 73 -23 101 -108 132 -102 37 -133 79
-85 112 28 20 73 20 127 1 l41 -14 0 49 c0 27 -5 52 -11 56 -17 10 -171 14
-201 5z"/>
</g>
</svg>
